<svg width="64" height="64" viewBox="0 0 64 64" fill="none" xmlns="http://www.w3.org/2000/svg">
<path d="M32 0C14.3546 0 0 14.3546 0 32C0 49.6454 14.3546 64 32 64C49.6454 64 64 49.6454 64 32C64 14.3546 49.6454 0 32 0ZM48.7414 56.0534L41.9308 53.7814L41.1147 50.5148C43.6801 47.9601 45.4401 44.4694 45.9707 40.8801C47.4081 40.4587 48.5147 39.2135 48.7094 37.6615L49.3387 32.6241C49.4748 31.5388 49.1388 30.4455 48.4214 29.6215C48.0134 29.1521 47.4988 28.7921 46.9308 28.5681L47.1574 23.9067L48.08 22.9841C49.5174 21.4561 50.7094 18.8375 48.224 15.0428C46.32 12.1361 43.0906 10.6614 38.6214 10.6614C36.864 10.6614 32.824 10.6614 29.0534 13.1868C18.2774 13.4188 16.8134 18.4347 16.8134 23.3281C16.8134 24.4481 17.0828 26.9441 17.2614 28.4907C16.624 28.7041 16.0454 29.0828 15.592 29.5947C14.8614 30.4241 14.52 31.5254 14.656 32.6214L15.2854 37.6587C15.4934 39.3174 16.7414 40.6214 18.3228 40.9521C18.8534 44.3975 20.5201 47.7787 22.9361 50.2855L22.0641 53.7761L15.2535 56.0481C7.6535 50.7415 2.6615 41.9467 2.6615 31.9947C2.6615 15.8214 15.8215 2.66138 31.9949 2.66138C48.1683 2.66138 61.3283 15.8214 61.3283 31.9947C61.3334 41.952 56.3414 50.7466 48.7414 56.0534Z" fill="#014F86"/>
</svg>
