<svg width="64" height="64" viewBox="0 0 64 64" fill="none" xmlns="http://www.w3.org/2000/svg">
<path d="M32 0C14.3546 0 0 14.3546 0 32C0 49.6454 14.3546 64 32 64C49.6454 64 64 49.6454 64 32C64 14.3546 49.6454 0 32 0ZM48.7414 56.0534L41.9308 53.7814L41.3867 51.608C48.0028 50.4826 51.4161 48.496 51.5654 48.408C51.944 48.1866 52.1787 47.784 52.2108 47.3466C52.2428 46.9093 52.0454 46.4772 51.7041 46.2052C51.6587 46.1706 47.1841 42.4639 47.1841 29.6319C47.1841 18.7199 44.6187 13.1865 39.5547 13.1865H38.8401C37.0321 11.4399 35.6588 10.6665 32.0001 10.6665C27.2428 10.6665 16.8161 15.4425 16.8161 29.6291C16.8161 42.4611 12.3415 46.1678 12.3121 46.1917C11.9575 46.4584 11.7575 46.8824 11.7788 47.3251C11.8028 47.7705 12.0427 48.1705 12.4241 48.3997C12.5735 48.4904 15.9521 50.4851 22.6108 51.6104L22.0694 53.7784L15.2587 56.0504C7.65863 50.7466 2.66663 41.952 2.66663 32C2.66663 15.8266 15.8266 2.66663 32 2.66663C48.1734 2.66663 61.3334 15.8266 61.3334 32C61.3334 41.952 56.3414 50.7466 48.7414 56.0534Z" fill="#014F86"/>
</svg>
